<?xml version="1.0" standalone="no"?>
<!DOCTYPE svg PUBLIC "-//W3C//DTD SVG 20010904//EN"
 "http://www.w3.org/TR/2001/REC-SVG-20010904/DTD/svg10.dtd">
<svg version="1.0" xmlns="http://www.w3.org/2000/svg"
 width="260.000000pt" height="260.000000pt" viewBox="0 0 260.000000 260.000000"
 preserveAspectRatio="xMidYMid meet">
<metadata>
Created by potrace 1.11, written by Peter Selinger 2001-2013
</metadata>
<g transform="translate(0.000000,260.000000) scale(0.100000,-0.100000)"
fill="#000000" stroke="none">
<path d="M0 1300 l0 -1300 1300 0 1300 0 0 1300 0 1300 -1300 0 -1300 0 0
-1300z m1515 637 c74 -187 135 -341 135 -343 0 -3 -34 -4 -76 -2 l-77 3 -27
75 -27 75 -129 3 -129 3 -29 -81 -28 -80 -75 0 c-41 0 -73 4 -71 8 2 5 62 160
133 346 l130 336 68 -2 68 -3 134 -338z m-547 -800 c69 -45 99 -131 71 -204
-5 -15 -25 -43 -42 -62 -23 -24 -28 -35 -19 -38 27 -10 80 -63 92 -93 19 -45
8 -132 -21 -174 -13 -19 -42 -45 -64 -58 -38 -22 -52 -23 -257 -26 l-218 -4 0
347 0 347 208 -4 c208 -3 209 -3 250 -31z m682 -67 c36 -55 67 -100 70 -100 3
0 34 45 70 100 l65 100 82 0 82 0 -104 -159 c-58 -88 -105 -164 -105 -171 0
-6 52 -89 115 -185 l114 -175 -84 0 -83 0 -77 116 -76 116 -76 -116 -75 -116
-84 0 -83 0 114 175 c63 96 115 180 115 185 0 6 -47 83 -105 170 l-104 160 82
0 83 0 64 -100z"/>
<path d="M1302 2079 c-17 -43 -72 -200 -72 -205 0 -2 36 -4 80 -4 44 0 80 4
80 8 0 5 -18 58 -39 118 -36 100 -40 107 -49 83z"/>
<path d="M650 969 l0 -81 109 4 c128 4 151 16 151 79 0 29 -6 42 -26 58 -23
18 -41 21 -130 21 l-104 0 0 -81z"/>
<path d="M650 685 l0 -87 121 4 c118 3 121 4 145 31 30 36 30 68 0 104 -24 27
-27 28 -145 32 l-121 3 0 -87z"/>
</g>
</svg>
